<?xml version="1.0" encoding="UTF-8" standalone="no"?>
<!DOCTYPE svg PUBLIC "-//W3C//DTD SVG 1.1//EN" "http://www.w3.org/Graphics/SVG/1.1/DTD/svg11.dtd">
<svg xmlns="http://www.w3.org/2000/svg" version="1.1" viewBox="0.00 0.00 72.00 72.00">
<rect width="72" height="72" rx="16" fill="#16a34a"/>
<path fill="#ffffff" d="
  M 17.31 31.54
  C 18.40 38.67 25.86 48.47 30.48 52.39
  Q 34.86 56.10 29.40 54.32
  C 11.25 48.42 1.36 33.33 7.41 14.23
  Q 7.53 13.86 7.90 13.92
  C 26.69 16.66 37.78 31.09 35.88 49.66
  Q 35.83 50.16 35.37 49.93
  C 26.95 45.70 22.35 39.24 17.66 31.42
  Q 17.16 30.59 17.31 31.54
  Z"
/>
<path fill="#ffffff" d="
  M 56.23 36.47
  C 50.61 40.30 46.38 43.80 41.69 45.10
  Q 41.20 45.24 41.30 44.74
  Q 45.38 24.57 66.17 28.37
  Q 66.79 28.48 66.76 29.12
  Q 66.67 30.75 66.17 32.22
  Q 60.96 47.54 44.71 48.12
  A 0.18 0.18 0.0 0 1 44.59 47.79
  Q 51.03 42.82 56.49 36.78
  A 0.21 0.20 -85.5 0 0 56.23 36.47
  Z"
/>
</svg>
